<svg  xmlns="http://www.w3.org/2000/svg" xmlns:xlink="http://www.w3.org/1999/xlink" viewBox="0 0 300 300">
    <style>:root>svg{display:none}:root>svg:target{display:block}</style>
    <svg id="btn-prev" xmlns="http://www.w3.org/2000/svg" viewBox="0 0 12 12">
        <path d="M7.8125 1L2.5 6L7.781 11L8.5 10.297L3.953 6L8.5 1.719L7.8125 1Z"/>
    </svg>
    <svg id="btn-next" xmlns="http://www.w3.org/2000/svg" viewBox="0 0 12 12">
        <path d="M4.1875 1L9.5 6L4.219 11L3.5 10.297L8.047 6L3.5 1.719L4.1875 1Z"/>
    </svg>
    <svg id="phone" xmlns="http://www.w3.org/2000/svg" viewBox="0 0 16 16">
        <path d="M9.33333 0.666667V0C13.0093 0 16 2.99067 16 6.66667H15.3333C15.3333 3.35867 12.6413 0.666667 9.33333 0.666667ZM12.6667 6.66667H13.3333C13.3333 4.46067 11.5393 2.66667 9.33333 2.66667V3.33333C11.1713 3.33333 12.6667 4.82867 12.6667 6.66667ZM11.6847 9.22467L15.4707 13.0107L13.5513 14.93C12.8627 15.62 11.93 16 10.924 16C6.126 16 0 9.87467 0 5.07533C0 4.06933 0.38 3.13667 1.07 2.448L2.98933 0.528667L6.77533 4.31467L4.52667 6.56333C5.53067 8.936 7.13933 10.546 9.43333 11.476L11.6847 9.22467ZM14.528 13.0107L11.6847 10.1673L9.598 12.2547L9.396 12.1773C6.78267 11.18 4.908 9.30667 3.82467 6.60933L3.74267 6.40467L5.83267 4.31467L2.98933 1.47133L1.54133 2.91933C0.977333 3.482 0.666667 4.248 0.666667 5.07533C0.666667 9.48533 6.51467 15.3333 10.9247 15.3333C11.752 15.3333 12.5173 15.0227 13.08 14.4587L14.528 13.0107Z" />
    </svg>
</svg>
